<?xml version="1.0" standalone="yes"?>

<svg version="1.1" viewBox="0.0 0.0 960.0 720.0" fill="none" stroke="none" stroke-linecap="square" stroke-miterlimit="10" xmlns="http://www.w3.org/2000/svg" xmlns:xlink="http://www.w3.org/1999/xlink"><clipPath id="p.0"><path d="m0 0l960.0 0l0 720.0l-960.0 0l0 -720.0z" clip-rule="nonzero"></path></clipPath><g clip-path="url(#p.0)"><path fill="#000000" fill-opacity="0.0" d="m0 0l960.0 0l0 720.0l-960.0 0z" fill-rule="evenodd"></path><path fill="#d9d9d9" d="m91.83465 181.14883l0 0c0 -51.196808 41.503212 -92.70001 92.70002 -92.70001l601.6866 0c24.585571 0 48.164185 9.766579 65.54883 27.1512c17.384583 17.384628 27.151184 40.96324 27.151184 65.54881l0 370.78897c0 51.196777 -41.503235 92.70001 -92.70001 92.70001l-601.6866 0c-51.196808 0 -92.70002 -41.503235 -92.70002 -92.70001z" fill-rule="evenodd"></path><path fill="#000000" d="m271.3017 214.14961l0.1574707 314.6142l-164.0 0l-0.15747833 -314.6142z" fill-rule="evenodd"></path><path stroke="#000000" stroke-width="1.0" stroke-linejoin="round" stroke-linecap="butt" d="m271.3017 214.14961l0.1574707 314.6142l-164.0 0l-0.15747833 -314.6142z" fill-rule="evenodd"></path><path fill="#000000" fill-opacity="0.0" d="m129.41995 242.4567l131.05511 0.81889343" fill-rule="evenodd"></path><path stroke="#efefef" stroke-width="12.0" stroke-linejoin="round" stroke-linecap="butt" d="m129.41995 242.4567l131.05511 0.81889343" fill-rule="evenodd"></path><path fill="#000000" fill-opacity="0.0" d="m135.5958 247.1811l-0.44093323 65.10237" fill-rule="evenodd"></path><path stroke="#efefef" stroke-width="12.0" stroke-linejoin="round" stroke-linecap="butt" d="m135.5958 247.1811l-0.44093323 65.10237" fill-rule="evenodd"></path><path fill="#000000" fill-opacity="0.0" d="m129.41995 306.4567l131.05511 0.8189087" fill-rule="evenodd"></path><path stroke="#efefef" stroke-width="12.0" stroke-linejoin="round" stroke-linecap="butt" d="m129.41995 306.4567l131.05511 0.8189087" fill-rule="evenodd"></path><path fill="#000000" fill-opacity="0.0" d="m255.5958 303.1811l-0.44093323 65.10239" fill-rule="evenodd"></path><path stroke="#efefef" stroke-width="12.0" stroke-linejoin="round" stroke-linecap="butt" d="m255.5958 303.1811l-0.44093323 65.10239" fill-rule="evenodd"></path><path fill="#000000" fill-opacity="0.0" d="m129.41995 366.13385l131.05511 0.8189087" fill-rule="evenodd"></path><path stroke="#efefef" stroke-width="12.0" stroke-linejoin="round" stroke-linecap="butt" d="m129.41995 366.13385l131.05511 0.8189087" fill-rule="evenodd"></path><path fill="#000000" fill-opacity="0.0" d="m135.5958 366.13385l-0.44093323 46.70868" fill-rule="evenodd"></path><path stroke="#efefef" stroke-width="12.0" stroke-linejoin="round" stroke-linecap="butt" d="m135.5958 366.13385l-0.44093323 46.70868" fill-rule="evenodd"></path><path fill="#000000" fill-opacity="0.0" d="m129.41995 412.02362l131.05511 0.8189087" fill-rule="evenodd"></path><path stroke="#efefef" stroke-width="12.0" stroke-linejoin="round" stroke-linecap="butt" d="m129.41995 412.02362l131.05511 0.8189087" fill-rule="evenodd"></path><path fill="#000000" fill-opacity="0.0" d="m255.5958 412.84253l-0.44093323 65.102356" fill-rule="evenodd"></path><path stroke="#efefef" stroke-width="12.0" stroke-linejoin="round" stroke-linecap="butt" d="m255.5958 412.84253l-0.44093323 65.102356" fill-rule="evenodd"></path><path fill="#000000" fill-opacity="0.0" d="m129.41995 474.6929l131.05511 0.8189087" fill-rule="evenodd"></path><path stroke="#efefef" stroke-width="12.0" stroke-linejoin="round" stroke-linecap="butt" d="m129.41995 474.6929l131.05511 0.8189087" fill-rule="evenodd"></path><path fill="#000000" d="m183.23622 586.3779l608.59845 0l0 46.70868l-608.59845 0z" fill-rule="evenodd"></path><path stroke="#000000" stroke-width="1.0" stroke-linejoin="round" stroke-linecap="butt" d="m183.23622 586.3779l608.59845 0l0 46.70868l-608.59845 0z" fill-rule="evenodd"></path><path fill="#999999" d="m304.08136 219.52231l452.15747 0l0 303.08664l-452.15747 0z" fill-rule="evenodd"></path><path stroke="#999999" stroke-width="1.0" stroke-linejoin="round" stroke-linecap="butt" d="m304.08136 219.52231l452.15747 0l0 303.08664l-452.15747 0z" fill-rule="evenodd"></path><path fill="#000000" d="m310.063 185.94751l31.496063 0l0 33.5748l-31.496063 0z" fill-rule="evenodd"></path><path stroke="#000000" stroke-width="1.0" stroke-linejoin="round" stroke-linecap="butt" d="m310.063 185.94751l31.496063 0l0 33.5748l-31.496063 0z" fill-rule="evenodd"></path><path fill="#000000" d="m366.063 185.94751l31.496063 0l0 33.5748l-31.496063 0z" fill-rule="evenodd"></path><path stroke="#000000" stroke-width="1.0" stroke-linejoin="round" stroke-linecap="butt" d="m366.063 185.94751l31.496063 0l0 33.5748l-31.496063 0z" fill-rule="evenodd"></path><path fill="#000000" d="m422.063 185.94751l31.496063 0l0 33.5748l-31.496063 0z" fill-rule="evenodd"></path><path stroke="#000000" stroke-width="1.0" stroke-linejoin="round" stroke-linecap="butt" d="m422.063 185.94751l31.496063 0l0 33.5748l-31.496063 0z" fill-rule="evenodd"></path><path fill="#000000" d="m478.063 185.94751l31.496063 0l0 33.5748l-31.496063 0z" fill-rule="evenodd"></path><path stroke="#000000" stroke-width="1.0" stroke-linejoin="round" stroke-linecap="butt" d="m478.063 185.94751l31.496063 0l0 33.5748l-31.496063 0z" fill-rule="evenodd"></path><path fill="#000000" d="m534.063 185.94751l31.496094 0l0 33.5748l-31.496094 0z" fill-rule="evenodd"></path><path stroke="#000000" stroke-width="1.0" stroke-linejoin="round" stroke-linecap="butt" d="m534.063 185.94751l31.496094 0l0 33.5748l-31.496094 0z" fill-rule="evenodd"></path><path fill="#000000" d="m598.063 185.94751l31.496094 0l0 33.5748l-31.496094 0z" fill-rule="evenodd"></path><path stroke="#000000" stroke-width="1.0" stroke-linejoin="round" stroke-linecap="butt" d="m598.063 185.94751l31.496094 0l0 33.5748l-31.496094 0z" fill-rule="evenodd"></path><path fill="#000000" d="m662.063 185.94751l31.496094 0l0 33.5748l-31.496094 0z" fill-rule="evenodd"></path><path stroke="#000000" stroke-width="1.0" stroke-linejoin="round" stroke-linecap="butt" d="m662.063 185.94751l31.496094 0l0 33.5748l-31.496094 0z" fill-rule="evenodd"></path><path fill="#000000" d="m718.063 185.94751l31.496094 0l0 33.5748l-31.496094 0z" fill-rule="evenodd"></path><path stroke="#000000" stroke-width="1.0" stroke-linejoin="round" stroke-linecap="butt" d="m718.063 185.94751l31.496094 0l0 33.5748l-31.496094 0z" fill-rule="evenodd"></path><path fill="#000000" d="m310.063 521.9475l31.496063 0l0 33.57483l-31.496063 0z" fill-rule="evenodd"></path><path stroke="#000000" stroke-width="1.0" stroke-linejoin="round" stroke-linecap="butt" d="m310.063 521.9475l31.496063 0l0 33.57483l-31.496063 0z" fill-rule="evenodd"></path><path fill="#000000" d="m366.063 521.9475l31.496063 0l0 33.57483l-31.496063 0z" fill-rule="evenodd"></path><path stroke="#000000" stroke-width="1.0" stroke-linejoin="round" stroke-linecap="butt" d="m366.063 521.9475l31.496063 0l0 33.57483l-31.496063 0z" fill-rule="evenodd"></path><path fill="#000000" d="m422.063 521.9475l31.496063 0l0 33.57483l-31.496063 0z" fill-rule="evenodd"></path><path stroke="#000000" stroke-width="1.0" stroke-linejoin="round" stroke-linecap="butt" d="m422.063 521.9475l31.496063 0l0 33.57483l-31.496063 0z" fill-rule="evenodd"></path><path fill="#000000" d="m478.063 521.9475l31.496063 0l0 33.57483l-31.496063 0z" fill-rule="evenodd"></path><path stroke="#000000" stroke-width="1.0" stroke-linejoin="round" stroke-linecap="butt" d="m478.063 521.9475l31.496063 0l0 33.57483l-31.496063 0z" fill-rule="evenodd"></path><path fill="#000000" d="m534.063 521.9475l31.496094 0l0 33.57483l-31.496094 0z" fill-rule="evenodd"></path><path stroke="#000000" stroke-width="1.0" stroke-linejoin="round" stroke-linecap="butt" d="m534.063 521.9475l31.496094 0l0 33.57483l-31.496094 0z" fill-rule="evenodd"></path><path fill="#000000" d="m598.063 521.9475l31.496094 0l0 33.57483l-31.496094 0z" fill-rule="evenodd"></path><path stroke="#000000" stroke-width="1.0" stroke-linejoin="round" stroke-linecap="butt" d="m598.063 521.9475l31.496094 0l0 33.57483l-31.496094 0z" fill-rule="evenodd"></path><path fill="#000000" d="m662.063 521.9475l31.496094 0l0 33.57483l-31.496094 0z" fill-rule="evenodd"></path><path stroke="#000000" stroke-width="1.0" stroke-linejoin="round" stroke-linecap="butt" d="m662.063 521.9475l31.496094 0l0 33.57483l-31.496094 0z" fill-rule="evenodd"></path><path fill="#000000" d="m718.063 521.9475l31.496094 0l0 33.57483l-31.496094 0z" fill-rule="evenodd"></path><path stroke="#000000" stroke-width="1.0" stroke-linejoin="round" stroke-linecap="butt" d="m718.063 521.9475l31.496094 0l0 33.57483l-31.496094 0z" fill-rule="evenodd"></path><path fill="#999999" d="m847.4252 345.04724l31.496094 0l0 88.8819l-31.496094 0z" fill-rule="evenodd"></path><path fill="#000000" d="m193.6063 99.99869l608.5984 0l0 46.708664l-608.5984 0z" fill-rule="evenodd"></path><path stroke="#000000" stroke-width="1.0" stroke-linejoin="round" stroke-linecap="butt" d="m193.6063 99.99869l608.5984 0l0 46.708664l-608.5984 0z" fill-rule="evenodd"></path><path fill="#666666" d="m193.6063 592.9449l31.496063 0l0 33.57483l-31.496063 0z" fill-rule="evenodd"></path><path fill="#666666" d="m233.6063 592.9449l31.496063 0l0 33.57483l-31.496063 0z" fill-rule="evenodd"></path><path fill="#666666" d="m273.6063 592.9449l31.496063 0l0 33.57483l-31.496063 0z" fill-rule="evenodd"></path><path fill="#666666" d="m313.6063 592.9449l31.496063 0l0 33.57483l-31.496063 0z" fill-rule="evenodd"></path><path fill="#666666" d="m353.6063 592.9449l31.496063 0l0 33.57483l-31.496063 0z" fill-rule="evenodd"></path><path fill="#666666" d="m393.6063 592.9449l31.496063 0l0 33.57483l-31.496063 0z" fill-rule="evenodd"></path><path fill="#666666" d="m433.6063 592.9449l31.496063 0l0 33.57483l-31.496063 0z" fill-rule="evenodd"></path><path fill="#666666" d="m473.6063 592.9449l31.496063 0l0 33.57483l-31.496063 0z" fill-rule="evenodd"></path><path fill="#666666" d="m513.6063 592.9449l31.496033 0l0 33.57483l-31.496033 0z" fill-rule="evenodd"></path><path fill="#666666" d="m553.6063 592.9449l31.496033 0l0 33.57483l-31.496033 0z" fill-rule="evenodd"></path><path fill="#666666" d="m593.6063 592.9449l31.496033 0l0 33.57483l-31.496033 0z" fill-rule="evenodd"></path><path fill="#666666" d="m633.6063 592.9449l31.496033 0l0 33.57483l-31.496033 0z" fill-rule="evenodd"></path><path fill="#666666" d="m673.6063 592.9449l31.496033 0l0 33.57483l-31.496033 0z" fill-rule="evenodd"></path><path fill="#666666" d="m713.6063 592.9449l31.496033 0l0 33.57483l-31.496033 0z" fill-rule="evenodd"></path><path fill="#666666" d="m753.6063 592.9449l31.496033 0l0 33.57483l-31.496033 0z" fill-rule="evenodd"></path><path fill="#666666" d="m202.15749 106.56693l31.496063 0l0 33.574806l-31.496063 0z" fill-rule="evenodd"></path><path fill="#666666" d="m242.15749 106.56693l31.496048 0l0 33.574806l-31.496048 0z" fill-rule="evenodd"></path><path fill="#666666" d="m282.15747 106.56693l31.496063 0l0 33.574806l-31.496063 0z" fill-rule="evenodd"></path><path fill="#666666" d="m322.15747 106.56693l31.496063 0l0 33.574806l-31.496063 0z" fill-rule="evenodd"></path><path fill="#666666" d="m362.15747 106.56693l31.496063 0l0 33.574806l-31.496063 0z" fill-rule="evenodd"></path><path fill="#666666" d="m402.15747 106.56693l31.496063 0l0 33.574806l-31.496063 0z" fill-rule="evenodd"></path><path fill="#666666" d="m442.15747 106.56693l31.496063 0l0 33.574806l-31.496063 0z" fill-rule="evenodd"></path><path fill="#666666" d="m482.15747 106.56693l31.496094 0l0 33.574806l-31.496094 0z" fill-rule="evenodd"></path><path fill="#666666" d="m522.1575 106.56693l31.496094 0l0 33.574806l-31.496094 0z" fill-rule="evenodd"></path><path fill="#666666" d="m562.1575 106.56693l31.496094 0l0 33.574806l-31.496094 0z" fill-rule="evenodd"></path><path fill="#666666" d="m602.1575 106.56693l31.496094 0l0 33.574806l-31.496094 0z" fill-rule="evenodd"></path><path fill="#666666" d="m642.1575 106.56693l31.496094 0l0 33.574806l-31.496094 0z" fill-rule="evenodd"></path><path fill="#666666" d="m682.1575 106.56693l31.496094 0l0 33.574806l-31.496094 0z" fill-rule="evenodd"></path><path fill="#666666" d="m722.1575 106.56693l31.496094 0l0 33.574806l-31.496094 0z" fill-rule="evenodd"></path><path fill="#666666" d="m762.1575 106.56693l31.496094 0l0 33.574806l-31.496094 0z" fill-rule="evenodd"></path></g></svg>

